<svg width="800" height="600" xmlns="http://www.w3.org/2000/svg">

 <g>
  <title>Layer 1</title>
  <path d="m433.42824,243.99915c0,-2 0,-4 0,-6c0,-2 0.58578,-2.58578 2,-4c1.41418,-1.41418 0,-3.99997 1.99998,-3.99997c2,0 0.58578,-2.58578 2,-4c1.41422,-1.41422 2,-2 4,-2c2,0 3.99998,0 5.99998,0c2,0 4.58578,-1.41422 6,0c1.41422,1.41422 0.58577,2.58578 1.99998,4c1.41422,1.41422 2.58578,0.58578 4,2c1.41422,1.41422 4.58578,-1.41422 5.99998,0c1.41422,1.41422 2,2 4,2c2,0 4,0 5.99998,0c2,0 2,1.99997 4,1.99997c2,0 4,0 5.99998,0c2,0 4,0 6,0c2,0 3.99998,0 5.99998,0c2,0 4,0 6,0c1.99998,0 3.99998,0 5.99998,0c2,0 4,0 5.99998,0c2,0 4,0 6,0c2,0 4,0 6,0c1.99997,0 3.99997,0 5.99997,0c2,0 4,0 10,0c4,0 9.99997,0 13.99997,0c6,0 10,0 13.99997,0c2,0 4,0 6,0c2,0 4,0 6,0c2,0 4,-1.99997 5.99997,-1.99997c4,0 5.38687,-0.9176 8,-2c3.69553,-1.53073 5.70547,-0.34619 8,-2c3.62796,-2.6149 5.38684,-2.9176 7.99997,-4c1.84775,-0.76538 3.38687,-0.9176 6,-2c1.84775,-0.76538 3.23462,-0.15225 4,-2c1.0824,-2.61313 4.15222,-1.23465 5.99997,-2c2.61313,-1.0824 3.38687,-2.91759 6,-3.99998c1.84775,-0.76537 1.38687,-2.9176 4,-4c3.69553,-1.53073 6,-1.99998 7.99997,-3.99998c2,-2.00002 3.38687,-4.9176 6,-6c1.84775,-0.76537 0.58578,-2.58577 2,-3.99998c1.41422,-1.41422 4.9176,-1.38687 6,-4c0.76538,-1.84776 -0.82843,-3.17157 2,-5.99998c2.8284,-2.8284 2.58575,-2.58578 3.99997,-4c1.41422,-1.41422 3.23465,-2.15224 4,-3.99998c1.0824,-2.61313 4.9176,-3.38687 6,-6c0.76538,-1.84776 1.23462,-4.15222 2,-5.99998c1.0824,-2.61313 2,-4 4,-6c2,-1.99998 2.58578,-2.5858 3.99997,-3.99998c2.82843,-2.82843 0.58578,-6.58578 2,-7.99998c1.41422,-1.41422 4,0 4,-2c0,-2 1.23462,-2.15224 2,-4c1.0824,-2.61313 2.58578,-4.58577 4,-5.99998c1.41422,-1.41422 2.58578,-0.58578 4,-2c1.41422,-1.41422 2,-2.00002 3.99997,-4c2,-2 3.70547,-4.34618 6,-5.99998c3.62799,-2.6149 4,-4 6,-4c2,0 2,-1.99998 4,-1.99998c1.99997,0 3.99997,0 5.99997,0c2,0 4,0 6,0c2,0 4,0 6,0c2,0 2.58575,-0.58578 3.99997,-2c1.41422,-1.41422 4.58578,1.41422 6,0c1.41422,-1.41422 0.58578,-2.58578 2,-4c1.41422,-1.41422 -1.41422,-4.58577 0,-5.99998c1.41422,-1.41422 2,-2 2,-4c0,-2 -1.41422,-4.58577 0,-5.99998c1.41422,-1.41422 0.58578,-2.58578 2,-4c1.41422,-1.41422 2,-1.99998 2,-3.99999c0,-1.99999 2,-1.99999 2,-3.99999c0,-1.99999 2,-1.99999 2,-3.99999c0,-2 1.23462,-2.15224 1.99997,-3.99999c1.0824,-2.61313 0.58578,-4.58578 2,-5.99999c1.41422,-1.41422 1.23462,-2.15224 2,-3.99999c1.0824,-2.61313 0.58578,-4.58578 2,-5.99999c1.41422,-1.41422 2.58578,-0.58578 4,-1.99999c1.41422,-1.41422 -1.41422,-4.58578 0,-5.99999c1.41422,-1.41422 0.58578,-2.58578 2,-3.99999c1.41422,-1.41422 4,0 6,0c2,0 2.58582,0.58578 4,1.99999c1.41418,1.41422 0,3.99999 0,5.99999c0,2 0,3.99999 0,5.99999c0,1.99999 -2,1.99999 -2,3.99999c0,2 0,3.99999 0,5.99999c0,1.99999 -2.58582,0.58578 -4,1.99999c-1.41422,1.41422 -0.58578,2.58578 -2,3.99999c-1.41422,1.41422 -0.58578,2.58578 -2,4c-1.41422,1.41422 -2.58578,0.58578 -4,1.99999c-1.41422,1.41422 0,3.99999 0,6c0,1.99998 0,3.99998 0,5.99998c0,2 0,3.99998 0,5.99998c0,2 0,4 0,6c0,1.99998 -2,1.99998 -2,3.99998c0,2 1.41422,4.58578 0,6c-1.41422,1.41422 -2,1.99998 -2,3.99998c0,2 0.58578,2.58578 2,4c1.41422,1.41422 1.38687,2.9176 4,3.99998c1.84775,0.76537 2,2 4,2c2,0 4.58582,0.58578 6,2c1.41418,1.41422 0.58582,2.58578 2,4c1.41418,1.41422 4.58582,-1.41422 6,0c1.41418,1.4142 0.58575,2.58577 1.99994,3.99998c1.41418,1.41422 4,0 4,2c0,2 -1.41418,4.58578 0,5.99998c1.41418,1.41422 2,2 2,4c0,2 0,4 0,5.99998c0,2 0,4 0,6c0,2 0,3.99998 -2,5.99998c-2,2 -3.38507,4.37202 -5.99994,7.99998c-1.65381,2.29456 -4.34619,3.70546 -6,6c-2.61487,3.62798 -6.34619,5.70544 -8,7.99998c-2.6149,3.62799 -6,5.99998 -10,9.99998c-2,2 -4.83768,6.83771 -7.99997,9.99998c-3.16229,3.16228 -8,5.99998 -10,7.99998c-4,4 -6.34619,5.70547 -7.99997,8c-2.61487,3.62796 -6.9176,5.38684 -8,7.99997c-0.76538,1.84775 -2.19577,5.64886 -6,8c-1.70129,1.05145 -1.64749,2.9725 -5.99997,4c-1.9465,0.4595 -2.0535,3.54047 -4,3.99997c-4.35251,1.0275 -6.58578,2.58578 -8,4c-2.82843,2.82843 -3.23465,4.15225 -4,6c-1.08237,2.6131 -5.64883,2.19577 -7.99997,6c-1.05145,1.70129 -2.37201,3.38507 -6,5.99997c-2.29453,1.65381 -4.15225,3.23462 -6,4c-2.6131,1.0824 -4.58575,2.58578 -5.99997,4c-1.41422,1.41422 -2,2 -4,4c-2,2 -4,2 -6,3.99997c-2,2 -6.58575,2.58578 -7.99997,4c-1.41422,1.41422 -1.38687,2.9176 -4,4c-1.84775,0.76538 -3.23462,0.15225 -4,2c-1.0824,2.61313 -4,2 -6,2c-2,0 -2,2 -5.99997,2c-4,0 -6.45673,-0.29608 -12,2c-5.22623,2.16476 -7.64746,4.97247 -11.99997,5.99997c-3.89301,0.91901 -8.10699,1.08099 -12,2c-4.35248,1.0275 -7.99997,4 -9.99997,4c-4,0 -6,2 -9.99997,2c-4,0 -6.10699,-0.91901 -10,0c-4.35251,1.0275 -6,2 -9.99997,2c-4,0 -10,2 -16,2c-2,0 -5.99997,2 -9.99997,2c-4,0 -6,0 -10,0c-2,0 -3.99997,0 -5.99997,0c-4,0 -8,0 -10,0c-3.99998,0 -8.05348,-1.5405 -9.99998,-2c-4.35249,-1.0275 -5.38686,-2.9176 -7.99998,-4c-5.54326,-2.29608 -8.30447,-2.46927 -11.99998,-4c-2.61311,-1.0824 -6.37199,-3.3851 -9.99998,-6c-2.29451,-1.65378 -4.37201,-3.38507 -7.99998,-5.99997c-4.58907,-3.30762 -6.15222,-5.23462 -7.99998,-6c-2.61313,-1.0824 -4.30447,-2.46927 -7.99998,-4c-2.61313,-1.0824 -3.38689,-4.9176 -6,-5.99997c-1.84775,-0.76535 -2.58577,-2.58578 -3.99998,-4c-1.41422,-1.41422 -2,-2 -4,-2c-2,0 -0.58578,-2.58578 -2,-4c-1.4142,-1.41422 -0.58577,-2.58578 -1.99998,-4c-1.41422,-1.41422 -2,-2 -2,-3.99997c0,-2 0,-4 0,-6c0,-2 0,-4 0,-6c0,-2 -0.58578,-2.58578 -2,-4c-1.41422,-1.41422 0,-3.99997 -2,-3.99997l0,-2l0,-2" id="svg_18" stroke="#000" fill="#ffff56"/>
  <path d="m429.99933,243.95615c-0.76923,0 -1.76376,0.54395 -2.30769,0c-1.08784,-1.08786 -0.2596,-2.54614 -1.53845,-4.61539c-1.14384,-1.85077 -2.01331,-3.90469 -2.30769,-4.61539c-0.41631,-1.00504 -0.76924,-1.53845 -0.76924,-2.30768c0,-0.76923 0,-1.53845 0,-2.30771c0,-0.76923 0.22531,-0.99451 0.76924,-1.53845c0.54393,-0.54391 0.05855,-1.24408 0.76923,-1.53845c1.00504,-0.41629 0.76923,-1.53845 1.53847,-1.53845c0.76923,0 0.82777,-0.47488 1.53845,-0.76926c1.00505,-0.41629 1.55905,-1.36172 2.30769,-1.53845c1.67404,-0.39517 2.53299,-0.22531 3.07692,-0.76923c0.54393,-0.54391 0.76924,-0.76923 1.53847,-0.76923c0.76923,0 0.99454,-0.22531 1.53847,-0.76923c0.54393,-0.54391 0.99451,-0.22531 1.53845,-0.76926c0.54393,-0.54395 0.76924,-0.76923 1.53847,-0.76923c0.76923,0 1.30264,-0.35294 2.30769,-0.76923c0.71068,-0.29437 1.53845,0 2.30769,0c0.76923,0 1.53845,0 2.30769,0c0.76923,0 1.53845,0 2.30769,0c0.76923,0 0.76923,0.76923 2.30768,0.76923c0.76924,0 0.2253,0.99454 0.76924,1.53848c0.54393,0.54391 0.76923,0.76923 1.53845,0.76923c0.76924,0 0.76924,0.76923 0.76924,1.53845c0,0.76923 0.76923,0.76923 0.76923,1.53845c0,0.76926 0,1.53848 0,2.30771c0,0.76923 0,1.53845 0,2.30768c0,0.76923 0,1.53848 0,2.30771c0,0.76923 -0.76923,0.76923 -0.76923,1.53845c0,0.76923 -0.99454,0.22531 -1.53847,0.76923c-0.54393,0.54391 -0.22528,0.99454 -0.76923,1.53848c-0.54393,0.54395 -1.65558,-0.58875 -3.07692,0c-1.00505,0.41629 -1.30266,1.12216 -2.30769,1.53845c-0.71069,0.29437 -1.40289,0.37405 -3.07693,0.76923c-0.74864,0.17673 -1.597,-0.29437 -2.30769,0c-1.00504,0.41629 -1.53845,0.76923 -2.30768,0.76923c-0.76924,0 -0.99454,0.22531 -1.53847,0.76923c-0.54393,0.54391 -0.99454,0.22531 -1.53847,0.76923c-0.54393,0.54391 -1.53845,0 -2.30769,0c-0.76923,0 -0.76923,0.76926 -1.53845,0.76926c-0.76924,0 -0.76924,0.76923 -1.53847,0.76923c-0.76923,0 -0.76923,0.76923 -1.53845,0.76923l0,0.76923" id="svg_19" stroke="#000" fill="#7f3f00"/>
  <path d="m750.76855,111.64846c0,-0.76923 -0.29437,-1.59702 0,-2.30769c0.41632,-1.00505 0.47488,-2.36623 0.76926,-3.07692c0.41629,-1.00504 1.12216,-2.07188 1.53845,-3.07692c0.29437,-0.71068 1.12216,-0.53342 1.53845,-1.53847c0.58875,-1.42134 0.47485,-1.597 0.76923,-2.30769c0.41629,-1.00504 1.12216,-1.30263 1.53848,-2.30768c0.29437,-0.71068 0.47485,-0.82779 0.76923,-1.53847c0.41629,-1.00504 0.47485,-1.59702 0.76923,-2.30769c0.41629,-1.00504 0.47485,-1.59702 0.76923,-2.30769c0.41629,-1.00504 1.89139,-1.30264 2.30771,-2.30769c0.58875,-1.42134 -0.31863,-2.7583 0.76923,-3.84615c0.54391,-0.54392 0.47485,-0.82778 0.76923,-1.53846c0.41629,-1.00505 0.47485,-1.59702 0.76923,-2.30769c0.41629,-1.00504 0.76923,-1.53846 0.76923,-2.30769c0,-0.76923 0.76923,-1.53846 0.76923,-2.30769c0,-0.76923 0.22531,-0.99454 0.76923,-1.53846c0.54391,-0.54392 -0.23648,-1.68153 0.76926,-3.07692c0.63608,-0.88251 1.12216,-1.30264 1.53845,-2.30769c0.29437,-0.71068 0.35294,-1.30264 0.76923,-2.30769c0.29437,-0.71068 0,-1.53846 0.76923,-2.30769c0.76923,-0.76923 0.47485,-1.59702 0.76923,-2.30769c0.41632,-1.00506 1.14331,-1.40289 1.53848,-3.07692c0.17673,-0.74866 0.35294,-1.30264 0.76923,-2.30769c0.29437,-0.71068 0.76923,-1.53846 0.76923,-2.30769c0,-0.76923 -0.54395,-1.76376 0,-2.30769c0.54391,-0.54392 0.76923,-0.76923 0.76923,-1.53846c0,-0.76923 0.76923,-0.76923 0.76923,-1.53846c0,-0.76923 0.22531,-0.99454 0.76923,-1.53846c0.54395,-0.54395 0.22531,-0.99454 0.76926,-1.53847c0.54391,-0.54392 0.47485,-0.82778 0.76923,-1.53846c0.41629,-1.00504 0.99454,-0.99454 1.53845,-1.53846c0.54395,-0.54393 0.22531,-0.99454 0.76923,-1.53846c0.54391,-0.54392 1.12216,-0.5334 1.53848,-1.53847c0.29437,-0.71067 0.7692,-0.76923 0.7692,-1.53846c0,-0.76923 0.22528,-0.99453 0.76923,-1.53846c0.54395,-0.54397 1.53851,0 2.30774,0c0.76923,0 2.17212,0.37405 3.84613,0.76923c1.49731,0.35347 2.07184,0.35292 3.0769,0.76923c0.71069,0.29437 1.53851,0 2.30774,0c0.76923,0 1.55902,0.5925 2.30768,0.76923c1.67401,0.39519 1.76373,0.99453 2.30768,1.53846c0.54395,0.54392 0.99451,0.2253 1.53845,0.76923c0.54395,0.54392 1.53845,0.00002 2.30768,0.76923c0.76929,0.76925 1.76379,0.99454 2.30774,1.53847c0.54395,0.54392 0.22528,0.99453 0.76923,1.53846c0.54395,0.54392 0.53339,1.12215 1.53845,1.53846c0.71069,0.29437 0.82776,0.47486 1.53845,0.76923c1.00507,0.41631 0.76923,1.53846 0.76923,2.30769c0,0.76923 0,1.53847 -0.76923,1.53847c-0.76923,0 -0.76923,0.76923 -1.53845,0.76923c-0.76923,0 -0.99451,0.2253 -1.53845,0.76923c-0.54395,0.54392 -1.30261,0.35293 -2.30768,0.76923c-0.71075,0.2944 -1.76379,-0.54392 -2.30774,0c-0.54395,0.54392 -0.22528,0.99453 -0.76923,1.53846c-0.54395,0.54392 -0.99451,0.2253 -1.53845,0.76923c-0.54395,0.54392 -0.99451,0.22531 -1.53845,0.76923c-0.54395,0.54393 -0.76923,0.76923 -0.76923,1.53846c0,0.76923 -0.22528,0.99454 -0.76923,1.53846c-0.54395,0.54392 -0.22528,0.99454 -0.76923,1.53847c-0.54395,0.54392 -0.76923,0.76923 -0.76923,1.53846c0,0.76923 -0.76923,0.76923 -0.76923,1.53846c0,0.76923 0,1.53846 0,2.30769c0,0.76923 0.54395,1.76376 0,2.30769c-0.54395,0.54397 -0.99457,0.22531 -1.53851,0.76923c-0.54395,0.54392 -0.47485,0.82778 -0.76923,1.53846c-0.41632,1.00504 -1.76373,1.76376 -2.30768,2.30769c-0.54395,0.54392 -0.76923,0.76923 -1.53845,1.53846c-0.76923,0.76923 -1.24408,0.82778 -1.53845,1.53846c-0.41632,1.00505 -1.30261,2.66062 -2.30768,3.07693c-0.71075,0.2944 -1.24414,0.82777 -1.53851,1.53846c-0.41629,1.00503 -1.24408,1.59702 -1.53845,2.30769c-0.83261,2.01009 -1.59702,2.01331 -2.30768,2.30769c-1.00504,0.41631 -0.82779,2.01334 -1.53845,2.30769c-1.00507,0.41631 -1.12219,1.30266 -1.53848,2.30769c-0.29437,0.71068 -0.22531,1.76376 -0.76923,2.30769c-0.54391,0.54393 -1.12216,1.30266 -1.53845,2.30769c-0.29437,0.71068 -0.76923,1.53847 -0.76923,2.30769c0,0.76923 -0.76923,1.53845 -0.76923,2.30769c0,0.76923 0,1.53845 0,2.30769c0,0.76923 0.54391,2.53299 0,3.07692c-0.54395,0.54395 -0.47488,0.82777 -0.76926,1.53847c-0.41629,1.00504 -0.76923,2.30768 -0.76923,3.84615c0,1.53847 -0.76923,3.07692 -0.76923,3.84616c0,0.76923 0,1.53845 0,2.30769c0,0.76923 -0.29437,1.597 0,2.30769c0.41629,1.00504 0.99454,1.76375 1.53845,2.30768c0.54395,0.54395 0.22534,0.99454 0.76926,1.53847c0.54391,0.54393 0.99454,0.2253 1.53845,0.76923c0.54395,0.54393 0.22531,0.99454 0.76923,1.53847c0.54391,0.54393 0.53342,1.12216 1.53845,1.53847c0.71066,0.29437 0.99454,0.22528 1.53848,0.76923c0.54391,0.54393 0.76923,0.76923 0.76923,1.53847l0.76923,0l0,0.76923l0,0.76923" id="svg_20" stroke="#000" fill="#ffff00"/>
  <path d="m775.38394,47.80231c0.76923,0.76923 1.30197,0.91231 2.30771,2.30769c1.27216,1.76503 2.96362,3.21007 3.84616,3.84616c1.39536,1.00571 1.6138,1.4034 3.07693,2.30769c1.96301,1.21322 3.71057,1.14328 5.38458,1.53847c2.24597,0.5302 3.0769,0 3.84619,0c0.76923,0 1.53845,0 1.53845,-0.76923c0,-0.76923 0.22528,-0.99454 0.76923,-1.53846c0.54395,-0.54392 1.53845,0 2.30768,0c0.76923,0 0.99451,-0.2253 1.53845,-0.76923c0.54395,-0.54392 0.53339,-1.12215 1.53845,-1.53846c0.71069,-0.29437 0.76923,-0.76923 1.53845,-0.76923c0.76929,0 1.53851,0 2.30774,0c0.76923,0 0.76923,-0.76923 1.53845,-0.76923c0.76923,0 1.76373,0.54392 2.30768,0c0.54395,-0.54393 0.76923,-0.76923 0.76923,-1.53847c0,-0.76923 0,-1.53846 0,-2.30769c0,-0.76923 0.3186,-1.21984 -0.76923,-2.30769c-1.08783,-1.08785 -1.59698,-0.47486 -2.30768,-0.76923c-1.00507,-0.41631 -1.30261,-1.12215 -2.30768,-1.53846c-0.71069,-0.29437 -1.59705,-0.47486 -2.30774,-0.76923c-1.00507,-0.41631 -1.30261,-1.12215 -2.30768,-1.53846c-0.71069,-0.29437 -1.53845,0 -2.30768,-0.76923c-0.76923,-0.76923 -0.99451,-0.99453 -1.53845,-1.53846c-0.54395,-0.54392 -0.99451,-0.2253 -1.53845,-0.76923c-0.54395,-0.54392 -1.53851,0 -1.53851,-0.76923c0,-0.76923 -0.76923,-0.76923 -1.53845,-0.76923c-0.76923,0 -0.99451,-0.2253 -1.53845,-0.76923c-0.54395,-0.54392 -1.53845,0 -2.30768,0c-1.53845,0 -2.30768,0 -3.0769,0c-0.76923,0 -1.89142,-0.23582 -2.30774,0.76923c-0.29437,0.71068 -0.22528,1.76377 -0.7692,2.30769c-0.54395,0.54395 -0.99454,1.76376 -1.53848,2.30769c-0.54391,0.54392 -0.76923,0.76923 -0.76923,1.53846c0,0.76923 -0.76923,0.76923 -0.76923,1.53847c0,0.76923 -0.76923,0.76923 -0.76923,1.53846c0,0.76923 0,1.53846 0,2.30769l0,0.76923l0,0.76923l0,0.76923" id="svg_21" stroke="#000" fill="#7f3f00"/>
  <path d="m451.39964,235.42664c0.90906,0 1.17531,0.26627 1.8181,0.90906c0.64278,0.64279 0.90904,0.90903 0.90904,1.81808c0,0.90906 0.26628,1.17529 0.90906,1.81808c0.64279,0.64279 1.17529,0.26627 1.81808,0.90906c0.64278,0.64279 0.26624,1.17529 0.90904,1.81808c1.28558,1.28558 2.56693,1.35107 4.54524,1.81808c0.88472,0.20886 2.59326,0.15735 3.63618,0.90906c1.649,1.18854 2.72714,0.90906 3.63618,0.90906c1.8181,0 3.63618,0 5.45428,0c0.90904,0 3.47597,0.44202 5.45427,0.90903c2.65419,0.62656 4.54524,0 6.36333,0c1.8181,0 4.61819,-0.62659 7.27238,0c1.9783,0.46701 4.54523,0.90906 7.27237,0.90906c1.81808,0 4.54523,0 6.36333,0c1.81808,0 3.65967,-0.29123 5.45428,0c2.83752,0.46048 4.54523,0.90906 6.36333,0.90906c1.81808,0 4.54523,0 6.36333,0c2.72713,0 5.45427,0 8.18141,0c2.72714,0 5.45428,0 9.09045,0c2.72714,0 6.36334,0 10.90857,0c3.6362,0 8.18143,0.90903 12.72665,0.90903c5.45428,0 9.99951,0 13.63571,0c4.54523,0 8.1814,0 12.72665,0c4.54523,0 9.02301,-1.36133 13.63568,-1.81808c3.6185,-0.35831 8.19913,-0.55075 11.81763,-0.90906c4.61267,-0.45673 8.1814,-1.81808 11.8176,-2.72714c3.63617,-0.90903 7.30026,-2.64743 9.99951,-3.63617c4.59668,-1.68378 9.01804,-3.78888 12.72665,-5.45428c4.46576,-2.0054 9.27045,-3.30255 14.54474,-6.36334c5.66968,-3.29022 9.99951,-6.36331 13.63571,-9.09045c3.63617,-2.72714 7.27237,-5.45427 10.90857,-8.18141c3.63617,-2.72713 6.1124,-6.5658 9.09045,-9.99953c3.36926,-3.8848 6.46524,-7.1981 9.09045,-10.90855c1.89307,-2.67566 4.54526,-7.27237 6.36334,-10.90855c1.81808,-3.63618 4.54523,-8.18143 6.36331,-11.81761c1.81812,-3.63618 4.91696,-7.06908 7.27237,-11.81761c2.17532,-4.3855 4.31473,-8.32794 7.2724,-12.72665c2.53616,-3.77185 4.54523,-7.27237 6.36331,-10.90855c1.81808,-3.63618 3.10791,-4.92601 4.54523,-6.36333c1.43732,-1.43732 1.17529,-2.08437 1.81808,-2.72714c0.64279,-0.64279 1.65851,-1.90709 2.72714,-3.63618c0.47791,-0.77328 0.90906,-1.81808 1.81812,-2.72714l0,-0.90904l0.90903,-0.90904l0.90906,0" id="svg_22" stroke="#000" fill="none"/>
  <path d="m430.10161,243.47806c0,0.90903 1.37538,2.35806 2.72713,4.54523c1.51131,2.44534 2.46727,6.55573 4.54524,9.09045c2.44514,2.9826 3.63618,4.54523 4.54523,5.45428c0.90904,0.90906 2.08435,2.08435 2.72714,2.72714c1.28558,1.28558 1.8181,3.6362 2.72714,4.54523c1.8181,1.81808 2.44846,3.14423 3.63618,3.6362c0.83984,0.34787 1.8181,0.90903 2.72714,1.81808c0.90904,0.90906 1.81807,1.81808 3.63618,3.6362c1.8181,1.81808 2.89622,2.44766 4.54523,3.63617c1.04294,0.75171 1.8873,1.47021 2.72714,1.81808c1.18774,0.49197 1.65788,1.3511 3.63618,1.81812c1.76945,0.41772 4.45691,1.11285 6.36333,1.81808c3.51527,1.30042 6.38376,0.57587 9.09047,0.90906c3.72,0.45795 5.45428,0.90903 10.90855,0.90903c4.54524,0 9.09047,0 12.72665,0c3.6362,0 6.36333,0 9.99953,0c1.8181,0 4.54521,0 5.45427,0c1.81808,0 4.54523,0 7.27237,0c3.6362,0 7.27237,0 10.90857,0c3.63617,0 5.45428,0 8.18143,0c3.63617,0 7.27237,0 10.90854,0c2.72714,0 6.36334,0 9.99951,0c3.6362,0 7.29532,-0.80115 11.81763,-1.81808c3.65677,-0.8223 8.25131,-1.57397 11.8176,-2.72714c4.6579,-1.50616 7.91113,-4.1283 10.90857,-5.45428c3.42767,-1.5163 7.38785,-1.52594 9.99951,-2.72714c4.81567,-2.2149 6.14612,-3.10522 9.09045,-4.54523c2.58234,-1.26297 5.45428,-1.81812 7.27237,-2.72714c1.81812,-0.90906 4.55701,-1.67249 5.45428,-1.81808c2.83755,-0.46048 3.52582,-1.35764 6.36334,-1.81808c1.79462,-0.29123 3.47595,-1.3511 5.45428,-1.81812c1.76944,-0.41772 3.57629,-1.04019 5.45425,-1.81808c2.65582,-1.1001 4.61655,-1.62708 7.27237,-2.72714c1.87796,-0.77786 4.56958,-2.51831 5.45428,-2.72714c1.97833,-0.46701 2.44846,-1.32611 3.6362,-1.81808c0.83987,-0.34787 1.17529,-0.26627 1.81808,-0.90906c0.64279,-0.64279 1.86673,-0.4913 3.6362,-0.90903c1.9783,-0.46701 3.63617,-1.81808 5.45428,-2.72714c3.6362,-1.81808 6.55576,-2.46725 9.09045,-4.54523c1.9884,-1.6301 4.42093,-4.67871 6.36331,-6.36334c3.43372,-2.97806 6.69766,-5.96689 9.99954,-9.09045c2.38101,-2.25244 5.76898,-4.2775 7.27237,-6.36334c1.18854,-1.64899 3.1442,-2.44846 3.63617,-3.63617c0.34787,-0.83987 1.07816,-1.53864 2.72714,-2.72714c1.04294,-0.75171 2.44846,-3.14423 3.6362,-3.6362c0.83984,-0.34787 2.19885,-1.28983 3.63617,-2.72714c1.43735,-1.43735 3.28513,-1.17903 5.45428,-3.63618c1.34525,-1.52386 3.93042,-4.10904 5.45428,-5.45427c2.45715,-2.16913 3.35669,-5.62337 4.54523,-7.27238c1.50339,-2.08583 3.63617,-4.54523 4.54523,-6.36333c0.90906,-1.8181 2.65225,-3.07883 3.6362,-5.45427c1.04364,-2.51955 1.5386,-3.80527 2.72714,-5.45428c0.75168,-1.04291 2.26013,-1.65788 2.72714,-3.63618c0.20886,-0.88472 1.5386,-1.98718 2.72714,-3.63618c1.50339,-2.08585 3.35669,-3.80527 4.54523,-5.45428c1.50339,-2.08583 2.44766,-2.89622 3.63617,-4.54523c0.75171,-1.04294 2.23517,-1.53943 2.72714,-2.72714c0.34787,-0.83984 0.90906,-1.8181 0.90906,-2.72714c0,-0.90904 1.32611,-1.53943 1.81808,-2.72714c0.34787,-0.83984 0.90906,-1.81808 0.90906,-3.63618l0.90906,-0.90904l0,-0.90906" id="svg_23" stroke="#000" fill="none"/>
  <path d="m26.28641,213.99922c0,-2 0,-4 0,-6c0,-2 0.58578,-2.58578 2,-4c1.41418,-1.41418 0,-3.99997 1.99998,-3.99997c2,0 0.58578,-2.58578 2,-4c1.41422,-1.41422 2,-2 4,-2c2,0 3.99998,0 5.99998,0c2,0 4.58578,-1.41422 6,0c1.41422,1.41422 0.58577,2.58578 1.99998,4c1.41422,1.41422 2.58578,0.58578 4,2c1.41422,1.41422 4.58578,-1.41422 5.99998,0c1.41422,1.41422 2,2 4,2c2,0 4,0 5.99998,0c2,0 2,1.99997 4,1.99997c2,0 4,0 5.99998,0c2,0 4,0 6,0c2,0 3.99998,0 5.99998,0c2,0 4,0 6,0c1.99998,0 3.99998,0 5.99998,0c2,0 4,0 5.99998,0c2,0 4,0 6,0c2,0 4,0 6,0c1.99997,0 3.99997,0 5.99997,0c2,0 4,0 10,0c4,0 9.99997,0 13.99997,0c6,0 10,0 13.99997,0c2,0 4,0 6,0c2,0 4,0 6,0c2,0 4,-1.99997 5.99997,-1.99997c4,0 5.38687,-0.9176 8,-2c3.69553,-1.53073 5.70547,-0.34619 8,-2c3.62796,-2.6149 5.38684,-2.9176 7.99997,-4c1.84775,-0.76538 3.38687,-0.9176 6,-2c1.84775,-0.76538 3.23462,-0.15225 4,-2c1.0824,-2.61313 4.15222,-1.23465 5.99997,-2c2.61313,-1.0824 3.38687,-2.91759 6,-3.99998c1.84775,-0.76537 1.38687,-2.9176 4,-4c3.69553,-1.53073 6,-1.99998 7.99997,-3.99998c2,-2.00002 3.38687,-4.9176 6,-6c1.84775,-0.76537 0.58578,-2.58577 2,-3.99998c1.41422,-1.41422 4.9176,-1.38687 6,-4c0.76538,-1.84776 -0.82843,-3.17157 2,-5.99998c2.8284,-2.8284 2.58575,-2.58578 3.99997,-4c1.41422,-1.41422 3.23465,-2.15224 4,-3.99998c1.0824,-2.61313 4.9176,-3.38687 6,-6c0.76538,-1.84776 1.23462,-4.15222 2,-5.99998c1.0824,-2.61313 2,-4 4,-6c2,-1.99998 2.58578,-2.5858 3.99997,-3.99998c2.82843,-2.82843 0.58578,-6.58578 2,-7.99998c1.41422,-1.41422 4,0 4,-2c0,-2 1.23462,-2.15224 2,-4c1.0824,-2.61313 2.58578,-4.58577 4,-5.99998c1.41422,-1.41422 2.58578,-0.58578 4,-2c1.41422,-1.41422 2,-2.00002 3.99997,-4c2,-2 3.70547,-4.34618 6,-5.99998c3.62799,-2.6149 4,-4 6,-4c2,0 2,-1.99998 4,-1.99998c1.99997,0 3.99997,0 5.99997,0c2,0 4,0 6,0c2,0 4,0 6,0c2,0 2.58575,-0.58578 3.99997,-2c1.41422,-1.41422 4.58578,1.41422 6,0c1.41422,-1.41422 0.58578,-2.58578 2,-4c1.41422,-1.41422 -1.41422,-4.58577 0,-5.99998c1.41422,-1.41422 2,-2 2,-4c0,-2 -1.41422,-4.58577 0,-5.99998c1.41422,-1.41422 0.58578,-2.58578 2,-4c1.41422,-1.41422 2,-1.99998 2,-3.99999c0,-1.99999 2,-1.99999 2,-3.99999c0,-1.99999 2,-1.99999 2,-3.99999c0,-2 1.23462,-2.15224 1.99997,-3.99999c1.0824,-2.61313 0.58578,-4.58578 2,-5.99999c1.41422,-1.41422 1.23462,-2.15224 2,-3.99999c1.0824,-2.61313 0.58578,-4.58578 2,-5.99999c1.41422,-1.41422 2.58578,-0.58578 4,-1.99999c1.41422,-1.41422 -1.41422,-4.58578 0,-5.99999c1.41422,-1.41422 0.58578,-2.58578 2,-3.99999c1.41422,-1.41422 4,0 6,0c2,0 2.58582,0.58578 4,1.99999c1.41418,1.41422 0,3.99999 0,5.99999c0,2 0,3.99999 0,5.99999c0,1.99999 -2,1.99999 -2,3.99999c0,2 0,3.99999 0,5.99999c0,1.99999 -2.58582,0.58578 -4,1.99999c-1.41422,1.41422 -0.58578,2.58578 -2,3.99999c-1.41422,1.41422 -0.58578,2.58578 -2,4c-1.41422,1.41422 -2.58578,0.58578 -4,1.99999c-1.41422,1.41422 0,3.99999 0,6c0,1.99998 0,3.99998 0,5.99998c0,2 0,3.99998 0,5.99998c0,2 0,4 0,6c0,1.99998 -2,1.99998 -2,3.99998c0,2 1.41422,4.58578 0,6c-1.41422,1.41422 -2,1.99998 -2,3.99998c0,2 0.58578,2.58578 2,4c1.41422,1.41422 1.38687,2.9176 4,3.99998c1.84775,0.76537 2,2 4,2c2,0 4.58582,0.58578 6,2c1.41418,1.41422 0.58582,2.58578 2,4c1.41418,1.41422 4.58582,-1.41422 6,0c1.41418,1.4142 0.58575,2.58577 1.99994,3.99998c1.41418,1.41422 4,0 4,2c0,2 -1.41418,4.58578 0,5.99998c1.41418,1.41422 2,2 2,4c0,2 0,4 0,5.99998c0,2 0,4 0,6c0,2 0,3.99998 -2,5.99998c-2,2 -3.38507,4.37202 -5.99994,7.99998c-1.65381,2.29456 -4.34619,3.70546 -6,6c-2.61487,3.62798 -6.34619,5.70544 -8,7.99998c-2.6149,3.62799 -6,5.99998 -10,9.99998c-2,2 -4.83768,6.83771 -7.99997,9.99998c-3.16229,3.16228 -8,5.99998 -10,7.99998c-4,4 -6.34619,5.70547 -7.99997,8c-2.61487,3.62796 -6.9176,5.38684 -8,7.99997c-0.76538,1.84775 -2.19577,5.64886 -6,8c-1.70129,1.05145 -1.64749,2.9725 -5.99997,4c-1.9465,0.4595 -2.0535,3.54047 -4,3.99997c-4.35251,1.0275 -6.58578,2.58578 -8,4c-2.82843,2.82843 -3.23465,4.15225 -4,6c-1.08237,2.6131 -5.64883,2.19577 -7.99997,6c-1.05145,1.70129 -2.37201,3.38507 -6,5.99997c-2.29453,1.65381 -4.15225,3.23462 -6,4c-2.6131,1.0824 -4.58575,2.58578 -5.99997,4c-1.41422,1.41422 -2,2 -4,4c-2,2 -4,2 -6,3.99997c-2,2 -6.58575,2.58578 -7.99997,4c-1.41422,1.41422 -1.38687,2.9176 -4,4c-1.84775,0.76538 -3.23462,0.15225 -4,2c-1.0824,2.61313 -4,2 -6,2c-2,0 -2,2 -5.99997,2c-4,0 -6.45673,-0.29608 -12,2c-5.22623,2.16476 -7.64746,4.97247 -11.99997,5.99997c-3.89301,0.91901 -8.10699,1.08099 -12,2c-4.35248,1.0275 -7.99997,4 -9.99997,4c-4,0 -6,2 -9.99997,2c-4,0 -6.10699,-0.91901 -10,0c-4.35251,1.0275 -6,2 -9.99997,2c-4,0 -10,2 -16,2c-2,0 -5.99997,2 -9.99997,2c-4,0 -6,0 -10,0c-2,0 -3.99997,0 -5.99997,0c-4,0 -8,0 -10,0c-3.99998,0 -8.05348,-1.5405 -9.99998,-2c-4.35249,-1.0275 -5.38686,-2.9176 -7.99998,-4c-5.54326,-2.29608 -8.30447,-2.46927 -11.99998,-4c-2.61311,-1.0824 -6.37199,-3.3851 -9.99998,-6c-2.29451,-1.65378 -4.37201,-3.38507 -7.99998,-5.99997c-4.58907,-3.30762 -6.15222,-5.23462 -7.99998,-6c-2.61313,-1.0824 -4.30447,-2.46927 -7.99998,-4c-2.61313,-1.0824 -3.38689,-4.9176 -6,-5.99997c-1.84775,-0.76535 -2.58577,-2.58578 -3.99998,-4c-1.41422,-1.41422 -2,-2 -4,-2c-2,0 -0.58578,-2.58578 -2,-4c-1.4142,-1.41422 -0.58577,-2.58578 -1.99998,-4c-1.41422,-1.41422 -2,-2 -2,-3.99997c0,-2 0,-4 0,-6c0,-2 0,-4 0,-6c0,-2 -0.58578,-2.58578 -2,-4c-1.41422,-1.41422 0,-3.99997 -2,-3.99997l0,-2l0,-2" id="svg_30" stroke="#000" fill="#ffff56"/>
  <path d="m22.8575,213.95622c-0.76923,0 -1.76376,0.54395 -2.30769,0c-1.08784,-1.08786 -0.2596,-2.54614 -1.53845,-4.61539c-1.14384,-1.85077 -2.01331,-3.90469 -2.30769,-4.61539c-0.41631,-1.00504 -0.76924,-1.53845 -0.76924,-2.30768c0,-0.76923 0,-1.53845 0,-2.30771c0,-0.76923 0.22531,-0.99451 0.76924,-1.53845c0.54393,-0.54391 0.05855,-1.24408 0.76923,-1.53845c1.00504,-0.41629 0.76923,-1.53845 1.53847,-1.53845c0.76923,0 0.82777,-0.47488 1.53845,-0.76926c1.00505,-0.41629 1.55905,-1.36172 2.30769,-1.53845c1.67404,-0.39517 2.53299,-0.22531 3.07692,-0.76923c0.54393,-0.54391 0.76924,-0.76923 1.53847,-0.76923c0.76923,0 0.99454,-0.22531 1.53847,-0.76923c0.54393,-0.54391 0.99451,-0.22531 1.53845,-0.76926c0.54393,-0.54395 0.76924,-0.76923 1.53847,-0.76923c0.76923,0 1.30264,-0.35294 2.30769,-0.76923c0.71068,-0.29437 1.53845,0 2.30769,0c0.76923,0 1.53845,0 2.30769,0c0.76923,0 1.53845,0 2.30769,0c0.76923,0 0.76923,0.76923 2.30768,0.76923c0.76924,0 0.2253,0.99454 0.76924,1.53848c0.54393,0.54391 0.76923,0.76923 1.53845,0.76923c0.76924,0 0.76924,0.76923 0.76924,1.53845c0,0.76923 0.76923,0.76923 0.76923,1.53845c0,0.76926 0,1.53848 0,2.30771c0,0.76923 0,1.53845 0,2.30768c0,0.76923 0,1.53848 0,2.30771c0,0.76923 -0.76923,0.76923 -0.76923,1.53845c0,0.76923 -0.99454,0.22531 -1.53847,0.76923c-0.54393,0.54391 -0.22528,0.99454 -0.76923,1.53848c-0.54393,0.54395 -1.65558,-0.58875 -3.07692,0c-1.00505,0.41629 -1.30266,1.12216 -2.30769,1.53845c-0.71069,0.29437 -1.40289,0.37405 -3.07693,0.76923c-0.74864,0.17673 -1.597,-0.29437 -2.30769,0c-1.00504,0.41629 -1.53845,0.76923 -2.30768,0.76923c-0.76924,0 -0.99454,0.22531 -1.53847,0.76923c-0.54393,0.54391 -0.99454,0.22531 -1.53847,0.76923c-0.54393,0.54391 -1.53845,0 -2.30769,0c-0.76923,0 -0.76923,0.76926 -1.53845,0.76926c-0.76924,0 -0.76924,0.76923 -1.53847,0.76923c-0.76923,0 -0.76923,0.76923 -1.53845,0.76923l0,0.76923" id="svg_31" stroke="#000" fill="#7f3f00"/>
  <path d="m343.62672,81.64853c0,-0.76923 -0.29437,-1.59702 0,-2.30769c0.41632,-1.00505 0.47488,-2.36623 0.76926,-3.07692c0.41629,-1.00504 1.12216,-2.07188 1.53845,-3.07692c0.29437,-0.71068 1.12216,-0.53342 1.53845,-1.53847c0.58875,-1.42134 0.47485,-1.597 0.76923,-2.30769c0.41629,-1.00504 1.12216,-1.30263 1.53848,-2.30768c0.29437,-0.71068 0.47485,-0.82779 0.76923,-1.53847c0.41629,-1.00504 0.47485,-1.59702 0.76923,-2.30769c0.41629,-1.00504 0.47485,-1.59702 0.76923,-2.30769c0.41629,-1.00504 1.89139,-1.30264 2.30771,-2.30769c0.58875,-1.42134 -0.31863,-2.7583 0.76923,-3.84615c0.54391,-0.54392 0.47485,-0.82778 0.76923,-1.53846c0.41629,-1.00505 0.47485,-1.59702 0.76923,-2.30769c0.41629,-1.00504 0.76923,-1.53846 0.76923,-2.30769c0,-0.76923 0.76923,-1.53846 0.76923,-2.30769c0,-0.76923 0.22531,-0.99454 0.76923,-1.53846c0.54391,-0.54392 -0.23648,-1.68153 0.76926,-3.07692c0.63608,-0.88251 1.12216,-1.30264 1.53845,-2.30769c0.29437,-0.71068 0.35294,-1.30264 0.76923,-2.30769c0.29437,-0.71068 0,-1.53846 0.76923,-2.30769c0.76923,-0.76923 0.47485,-1.59702 0.76923,-2.30769c0.41632,-1.00506 1.14331,-1.40289 1.53848,-3.07692c0.17673,-0.74866 0.35294,-1.30264 0.76923,-2.30769c0.29437,-0.71068 0.76923,-1.53846 0.76923,-2.30769c0,-0.76923 -0.54395,-1.76376 0,-2.30769c0.54391,-0.54392 0.76923,-0.76923 0.76923,-1.53846c0,-0.76923 0.76923,-0.76923 0.76923,-1.53846c0,-0.76923 0.22531,-0.99454 0.76923,-1.53846c0.54395,-0.54395 0.22531,-0.99454 0.76926,-1.53847c0.54391,-0.54392 0.47485,-0.82778 0.76923,-1.53846c0.41629,-1.00504 0.99454,-0.99454 1.53845,-1.53846c0.54395,-0.54393 0.22531,-0.99454 0.76923,-1.53846c0.54391,-0.54392 1.12216,-0.5334 1.53848,-1.53847c0.29437,-0.71067 0.7692,-0.76923 0.7692,-1.53846c0,-0.76923 0.22528,-0.99453 0.76923,-1.53846c0.54395,-0.54397 1.53851,0 2.30774,0c0.76923,0 2.17212,0.37405 3.84613,0.76923c1.49731,0.35347 2.07184,0.35292 3.0769,0.76923c0.71069,0.29437 1.53851,0 2.30774,0c0.76923,0 1.55902,0.5925 2.30768,0.76923c1.67401,0.39519 1.76373,0.99453 2.30768,1.53846c0.54395,0.54392 0.99451,0.2253 1.53845,0.76923c0.54395,0.54392 1.53845,0.00002 2.30768,0.76923c0.76929,0.76925 1.76379,0.99454 2.30774,1.53847c0.54395,0.54392 0.22528,0.99453 0.76923,1.53846c0.54395,0.54392 0.53339,1.12215 1.53845,1.53846c0.71069,0.29437 0.82776,0.47486 1.53845,0.76923c1.00507,0.41631 0.76923,1.53846 0.76923,2.30769c0,0.76923 0,1.53847 -0.76923,1.53847c-0.76923,0 -0.76923,0.76923 -1.53845,0.76923c-0.76923,0 -0.99451,0.2253 -1.53845,0.76923c-0.54395,0.54392 -1.30261,0.35293 -2.30768,0.76923c-0.71075,0.2944 -1.76379,-0.54392 -2.30774,0c-0.54395,0.54392 -0.22528,0.99453 -0.76923,1.53846c-0.54395,0.54392 -0.99451,0.2253 -1.53845,0.76923c-0.54395,0.54392 -0.99451,0.22531 -1.53845,0.76923c-0.54395,0.54393 -0.76923,0.76923 -0.76923,1.53846c0,0.76923 -0.22528,0.99454 -0.76923,1.53846c-0.54395,0.54392 -0.22528,0.99454 -0.76923,1.53847c-0.54395,0.54392 -0.76923,0.76923 -0.76923,1.53846c0,0.76923 -0.76923,0.76923 -0.76923,1.53846c0,0.76923 0,1.53846 0,2.30769c0,0.76923 0.54395,1.76376 0,2.30769c-0.54395,0.54397 -0.99457,0.22531 -1.53851,0.76923c-0.54395,0.54392 -0.47485,0.82778 -0.76923,1.53846c-0.41632,1.00504 -1.76373,1.76376 -2.30768,2.30769c-0.54395,0.54392 -0.76923,0.76923 -1.53845,1.53846c-0.76923,0.76923 -1.24408,0.82778 -1.53845,1.53846c-0.41632,1.00505 -1.30261,2.66062 -2.30768,3.07693c-0.71075,0.2944 -1.24414,0.82777 -1.53851,1.53846c-0.41629,1.00503 -1.24408,1.59702 -1.53845,2.30769c-0.83261,2.01009 -1.59702,2.01331 -2.30768,2.30769c-1.00504,0.41631 -0.82779,2.01334 -1.53845,2.30769c-1.00507,0.41631 -1.12219,1.30266 -1.53848,2.30769c-0.29437,0.71068 -0.22531,1.76376 -0.76923,2.30769c-0.54391,0.54393 -1.12216,1.30266 -1.53845,2.30769c-0.29437,0.71068 -0.76923,1.53847 -0.76923,2.30769c0,0.76923 -0.76923,1.53845 -0.76923,2.30769c0,0.76923 0,1.53845 0,2.30769c0,0.76923 0.54391,2.53299 0,3.07692c-0.54395,0.54395 -0.47488,0.82777 -0.76926,1.53847c-0.41629,1.00504 -0.76923,2.30768 -0.76923,3.84615c0,1.53847 -0.76923,3.07692 -0.76923,3.84616c0,0.76923 0,1.53845 0,2.30769c0,0.76923 -0.29437,1.597 0,2.30769c0.41629,1.00504 0.99454,1.76375 1.53845,2.30768c0.54395,0.54395 0.22534,0.99454 0.76926,1.53847c0.54391,0.54393 0.99454,0.2253 1.53845,0.76923c0.54395,0.54393 0.22531,0.99454 0.76923,1.53847c0.54391,0.54393 0.53342,1.12216 1.53845,1.53847c0.71066,0.29437 0.99454,0.22528 1.53848,0.76923c0.54391,0.54393 0.76923,0.76923 0.76923,1.53847l0.76923,0l0,0.76923l0,0.76923" id="svg_32" stroke="#000" fill="#ffff00"/>
  <path d="m368.24211,17.80238c0.76923,0.76923 1.30197,0.91231 2.30771,2.30769c1.27216,1.76503 2.96362,3.21007 3.84616,3.84616c1.39536,1.00571 1.6138,1.4034 3.07693,2.30769c1.96301,1.21322 3.71057,1.14328 5.38458,1.53847c2.24597,0.5302 3.0769,0 3.84619,0c0.76923,0 1.53845,0 1.53845,-0.76923c0,-0.76923 0.22528,-0.99454 0.76923,-1.53846c0.54395,-0.54392 1.53845,0 2.30768,0c0.76923,0 0.99451,-0.2253 1.53845,-0.76923c0.54395,-0.54392 0.53339,-1.12215 1.53845,-1.53846c0.71069,-0.29437 0.76923,-0.76923 1.53845,-0.76923c0.76929,0 1.53851,0 2.30774,0c0.76923,0 0.76923,-0.76923 1.53845,-0.76923c0.76923,0 1.76373,0.54392 2.30768,0c0.54395,-0.54393 0.76923,-0.76923 0.76923,-1.53847c0,-0.76923 0,-1.53846 0,-2.30769c0,-0.76923 0.3186,-1.21984 -0.76923,-2.30769c-1.08783,-1.08785 -1.59698,-0.47486 -2.30768,-0.76923c-1.00507,-0.41631 -1.30261,-1.12215 -2.30768,-1.53846c-0.71069,-0.29437 -1.59705,-0.47486 -2.30774,-0.76923c-1.00507,-0.41631 -1.30261,-1.12215 -2.30768,-1.53846c-0.71069,-0.29437 -1.53845,0 -2.30768,-0.76923c-0.76923,-0.76923 -0.99451,-0.99453 -1.53845,-1.53846c-0.54395,-0.54392 -0.99451,-0.2253 -1.53845,-0.76923c-0.54395,-0.54392 -1.53851,0 -1.53851,-0.76923c0,-0.76923 -0.76923,-0.76923 -1.53845,-0.76923c-0.76923,0 -0.99451,-0.2253 -1.53845,-0.76923c-0.54395,-0.54392 -1.53845,0 -2.30768,0c-1.53845,0 -2.30768,0 -3.0769,0c-0.76923,0 -1.89142,-0.23582 -2.30774,0.76923c-0.29437,0.71068 -0.22528,1.76377 -0.7692,2.30769c-0.54395,0.54395 -0.99454,1.76376 -1.53848,2.30769c-0.54391,0.54392 -0.76923,0.76923 -0.76923,1.53846c0,0.76923 -0.76923,0.76923 -0.76923,1.53847c0,0.76923 -0.76923,0.76923 -0.76923,1.53846c0,0.76923 0,1.53846 0,2.30769l0,0.76923l0,0.76923l0,0.76923" id="svg_33" stroke="#000" fill="#7f3f00"/>
  <path d="m44.25781,205.42671c0.90906,0 1.17531,0.26627 1.8181,0.90906c0.64278,0.64279 0.90904,0.90903 0.90904,1.81808c0,0.90906 0.26628,1.17529 0.90906,1.81808c0.64279,0.64279 1.17529,0.26627 1.81808,0.90906c0.64278,0.64279 0.26624,1.17529 0.90904,1.81808c1.28558,1.28558 2.56693,1.35107 4.54524,1.81808c0.88472,0.20886 2.59326,0.15735 3.63618,0.90906c1.649,1.18854 2.72714,0.90906 3.63618,0.90906c1.8181,0 3.63618,0 5.45428,0c0.90904,0 3.47597,0.44202 5.45427,0.90903c2.65419,0.62656 4.54524,0 6.36333,0c1.8181,0 4.61819,-0.62659 7.27238,0c1.9783,0.46701 4.54523,0.90906 7.27237,0.90906c1.81808,0 4.54523,0 6.36333,0c1.81808,0 3.65967,-0.29123 5.45428,0c2.83752,0.46048 4.54523,0.90906 6.36333,0.90906c1.81808,0 4.54523,0 6.36333,0c2.72713,0 5.45427,0 8.18141,0c2.72714,0 5.45428,0 9.09045,0c2.72714,0 6.36334,0 10.90857,0c3.6362,0 8.18143,0.90903 12.72665,0.90903c5.45428,0 9.99951,0 13.63571,0c4.54523,0 8.1814,0 12.72665,0c4.54523,0 9.02301,-1.36133 13.63568,-1.81808c3.6185,-0.35831 8.19913,-0.55075 11.81763,-0.90906c4.61267,-0.45673 8.1814,-1.81808 11.8176,-2.72714c3.63617,-0.90903 7.30026,-2.64743 9.99951,-3.63617c4.59668,-1.68378 9.01804,-3.78888 12.72665,-5.45428c4.46576,-2.0054 9.27045,-3.30255 14.54474,-6.36334c5.66968,-3.29022 9.99951,-6.36331 13.63571,-9.09045c3.63617,-2.72714 7.27237,-5.45427 10.90857,-8.18141c3.63617,-2.72713 6.1124,-6.5658 9.09045,-9.99953c3.36926,-3.8848 6.46524,-7.1981 9.09045,-10.90855c1.89307,-2.67566 4.54526,-7.27237 6.36334,-10.90855c1.81808,-3.63618 4.54523,-8.18143 6.36331,-11.81761c1.81812,-3.63618 4.91696,-7.06908 7.27237,-11.81761c2.17532,-4.3855 4.31473,-8.32794 7.2724,-12.72665c2.53616,-3.77185 4.54523,-7.27237 6.36331,-10.90855c1.81808,-3.63618 3.10791,-4.92601 4.54523,-6.36333c1.43732,-1.43732 1.17529,-2.08437 1.81808,-2.72714c0.64279,-0.64279 1.65851,-1.90709 2.72714,-3.63618c0.47791,-0.77328 0.90906,-1.81808 1.81812,-2.72714l0,-0.90904l0.90903,-0.90904l0.90906,0" id="svg_34" stroke="#000" fill="none"/>
  <path d="m22.95978,213.47813c0,0.90903 1.37538,2.35806 2.72713,4.54523c1.51131,2.44534 2.46727,6.55573 4.54524,9.09045c2.44514,2.9826 3.63618,4.54523 4.54523,5.45428c0.90904,0.90906 2.08435,2.08435 2.72714,2.72714c1.28558,1.28558 1.8181,3.6362 2.72714,4.54523c1.8181,1.81808 2.44846,3.14423 3.63618,3.6362c0.83984,0.34787 1.8181,0.90903 2.72714,1.81808c0.90904,0.90906 1.81807,1.81808 3.63618,3.6362c1.8181,1.81808 2.89622,2.44766 4.54523,3.63617c1.04294,0.75171 1.8873,1.47021 2.72714,1.81808c1.18774,0.49197 1.65788,1.3511 3.63618,1.81812c1.76945,0.41772 4.45691,1.11285 6.36333,1.81808c3.51527,1.30042 6.38376,0.57587 9.09047,0.90906c3.72,0.45795 5.45428,0.90903 10.90855,0.90903c4.54524,0 9.09047,0 12.72665,0c3.6362,0 6.36333,0 9.99953,0c1.8181,0 4.54521,0 5.45427,0c1.81808,0 4.54523,0 7.27237,0c3.6362,0 7.27237,0 10.90857,0c3.63617,0 5.45428,0 8.18143,0c3.63617,0 7.27237,0 10.90854,0c2.72714,0 6.36334,0 9.99951,0c3.6362,0 7.29532,-0.80115 11.81763,-1.81808c3.65677,-0.8223 8.25131,-1.57397 11.8176,-2.72714c4.6579,-1.50616 7.91113,-4.1283 10.90857,-5.45428c3.42767,-1.5163 7.38785,-1.52594 9.99951,-2.72714c4.81567,-2.2149 6.14612,-3.10522 9.09045,-4.54523c2.58234,-1.26297 5.45428,-1.81812 7.27237,-2.72714c1.81812,-0.90906 4.55701,-1.67249 5.45428,-1.81808c2.83755,-0.46048 3.52582,-1.35764 6.36334,-1.81808c1.79462,-0.29123 3.47595,-1.3511 5.45428,-1.81812c1.76944,-0.41772 3.57629,-1.04019 5.45425,-1.81808c2.65582,-1.1001 4.61655,-1.62708 7.27237,-2.72714c1.87796,-0.77786 4.56958,-2.51831 5.45428,-2.72714c1.97833,-0.46701 2.44846,-1.32611 3.6362,-1.81808c0.83987,-0.34787 1.17529,-0.26627 1.81808,-0.90906c0.64279,-0.64279 1.86673,-0.4913 3.6362,-0.90903c1.9783,-0.46701 3.63617,-1.81808 5.45428,-2.72714c3.6362,-1.81808 6.55576,-2.46725 9.09045,-4.54523c1.9884,-1.6301 4.42093,-4.67871 6.36331,-6.36334c3.43372,-2.97806 6.69766,-5.96689 9.99954,-9.09045c2.38101,-2.25244 5.76898,-4.2775 7.27237,-6.36334c1.18854,-1.64899 3.1442,-2.44846 3.63617,-3.63617c0.34787,-0.83987 1.07816,-1.53864 2.72714,-2.72714c1.04294,-0.75171 2.44846,-3.14423 3.6362,-3.6362c0.83984,-0.34787 2.19885,-1.28983 3.63617,-2.72714c1.43735,-1.43735 3.28513,-1.17903 5.45428,-3.63618c1.34525,-1.52386 3.93042,-4.10904 5.45428,-5.45427c2.45715,-2.16913 3.35669,-5.62337 4.54523,-7.27238c1.50339,-2.08583 3.63617,-4.54523 4.54523,-6.36333c0.90906,-1.8181 2.65225,-3.07883 3.6362,-5.45427c1.04364,-2.51955 1.5386,-3.80527 2.72714,-5.45428c0.75168,-1.04291 2.26013,-1.65788 2.72714,-3.63618c0.20886,-0.88472 1.5386,-1.98718 2.72714,-3.63618c1.50339,-2.08585 3.35669,-3.80527 4.54523,-5.45428c1.50339,-2.08583 2.44766,-2.89622 3.63617,-4.54523c0.75171,-1.04294 2.23517,-1.53943 2.72714,-2.72714c0.34787,-0.83984 0.90906,-1.8181 0.90906,-2.72714c0,-0.90904 1.32611,-1.53943 1.81808,-2.72714c0.34787,-0.83984 0.90906,-1.81808 0.90906,-3.63618l0.90906,-0.90904l0,-0.90906" id="svg_35" stroke="#000" fill="none"/>
  <path d="m30.57214,446.85577c0,-2 0,-4 0,-6c0,-2 0.58578,-2.58578 2,-4c1.41418,-1.41418 0,-3.99997 1.99998,-3.99997c2,0 0.58578,-2.58578 2,-4c1.41422,-1.41422 2,-2 4,-2c2,0 3.99998,0 5.99998,0c2,0 4.58578,-1.41422 6,0c1.41422,1.41422 0.58577,2.58578 1.99998,4c1.41422,1.41422 2.58578,0.58578 4,2c1.41422,1.41422 4.58578,-1.41422 5.99998,0c1.41422,1.41422 2,2 4,2c2,0 4,0 5.99998,0c2,0 2,1.99997 4,1.99997c2,0 4,0 5.99998,0c2,0 4,0 6,0c2,0 3.99998,0 5.99998,0c2,0 4,0 6,0c1.99998,0 3.99998,0 5.99998,0c2,0 4,0 5.99998,0c2,0 4,0 6,0c2,0 4,0 6,0c1.99997,0 3.99997,0 5.99997,0c2,0 4,0 10,0c4,0 9.99997,0 13.99997,0c6,0 10,0 13.99997,0c2,0 4,0 6,0c2,0 4,0 6,0c2,0 4,-1.99997 5.99997,-1.99997c4,0 5.38687,-0.9176 8,-2c3.69553,-1.53073 5.70547,-0.34619 8,-2c3.62796,-2.6149 5.38684,-2.9176 7.99997,-4c1.84775,-0.76538 3.38687,-0.9176 6,-2c1.84775,-0.76538 3.23462,-0.15225 4,-2c1.0824,-2.61313 4.15222,-1.23465 5.99997,-2c2.61313,-1.0824 3.38687,-2.91759 6,-3.99998c1.84775,-0.76537 1.38687,-2.9176 4,-4c3.69553,-1.53073 6,-1.99998 7.99997,-3.99998c2,-2.00002 3.38687,-4.9176 6,-6c1.84775,-0.76537 0.58578,-2.58577 2,-3.99998c1.41422,-1.41422 4.9176,-1.38687 6,-4c0.76538,-1.84776 -0.82843,-3.17157 2,-5.99998c2.8284,-2.8284 2.58575,-2.58578 3.99997,-4c1.41422,-1.41422 3.23465,-2.15224 4,-3.99998c1.0824,-2.61313 4.9176,-3.38687 6,-6c0.76538,-1.84776 1.23462,-4.15222 2,-5.99998c1.0824,-2.61313 2,-4 4,-6c2,-1.99998 2.58578,-2.5858 3.99997,-3.99998c2.82843,-2.82843 0.58578,-6.58578 2,-7.99998c1.41422,-1.41422 4,0 4,-2c0,-2 1.23462,-2.15224 2,-4c1.0824,-2.61313 2.58578,-4.58577 4,-5.99998c1.41422,-1.41422 2.58578,-0.58578 4,-2c1.41422,-1.41422 2,-2.00002 3.99997,-4c2,-2 3.70547,-4.34618 6,-5.99998c3.62799,-2.6149 4,-4 6,-4c2,0 2,-1.99998 4,-1.99998c1.99997,0 3.99997,0 5.99997,0c2,0 4,0 6,0c2,0 4,0 6,0c2,0 2.58575,-0.58578 3.99997,-2c1.41422,-1.41422 4.58578,1.41422 6,0c1.41422,-1.41422 0.58578,-2.58578 2,-4c1.41422,-1.41422 -1.41422,-4.58577 0,-5.99998c1.41422,-1.41422 2,-2 2,-4c0,-2 -1.41422,-4.58577 0,-5.99998c1.41422,-1.41422 0.58578,-2.58578 2,-4c1.41422,-1.41422 2,-1.99998 2,-3.99999c0,-1.99999 2,-1.99999 2,-3.99999c0,-1.99999 2,-1.99999 2,-3.99999c0,-2 1.23462,-2.15224 1.99997,-3.99999c1.0824,-2.61313 0.58578,-4.58578 2,-5.99999c1.41422,-1.41422 1.23462,-2.15224 2,-3.99999c1.0824,-2.61313 0.58578,-4.58578 2,-5.99999c1.41422,-1.41422 2.58578,-0.58578 4,-1.99999c1.41422,-1.41422 -1.41422,-4.58578 0,-5.99999c1.41422,-1.41422 0.58578,-2.58578 2,-3.99999c1.41422,-1.41422 4,0 6,0c2,0 2.58582,0.58578 4,1.99999c1.41418,1.41422 0,3.99999 0,5.99999c0,2 0,3.99999 0,5.99999c0,1.99999 -2,1.99999 -2,3.99999c0,2 0,3.99999 0,5.99999c0,1.99999 -2.58582,0.58578 -4,1.99999c-1.41422,1.41422 -0.58578,2.58578 -2,3.99999c-1.41422,1.41422 -0.58578,2.58578 -2,4c-1.41422,1.41422 -2.58578,0.58578 -4,1.99999c-1.41422,1.41422 0,3.99999 0,6c0,1.99998 0,3.99998 0,5.99998c0,2 0,3.99998 0,5.99998c0,2 0,4 0,6c0,1.99998 -2,1.99998 -2,3.99998c0,2 1.41422,4.58578 0,6c-1.41422,1.41422 -2,1.99998 -2,3.99998c0,2 0.58578,2.58578 2,4c1.41422,1.41422 1.38687,2.9176 4,3.99998c1.84775,0.76537 2,2 4,2c2,0 4.58582,0.58578 6,2c1.41418,1.41422 0.58582,2.58578 2,4c1.41418,1.41422 4.58582,-1.41422 6,0c1.41418,1.4142 0.58575,2.58577 1.99994,3.99998c1.41418,1.41422 4,0 4,2c0,2 -1.41418,4.58578 0,5.99998c1.41418,1.41422 2,2 2,4c0,2 0,4 0,5.99998c0,2 0,4 0,6c0,2 0,3.99998 -2,5.99998c-2,2 -3.38507,4.37202 -5.99994,7.99998c-1.65381,2.29456 -4.34619,3.70546 -6,6c-2.61487,3.62798 -6.34619,5.70544 -8,7.99998c-2.6149,3.62799 -6,5.99998 -10,9.99998c-2,2 -4.83768,6.83771 -7.99997,9.99998c-3.16229,3.16228 -8,5.99998 -10,7.99998c-4,4 -6.34619,5.70547 -7.99997,8c-2.61487,3.62796 -6.9176,5.38684 -8,7.99997c-0.76538,1.84775 -2.19577,5.64886 -6,8c-1.70129,1.05145 -1.64749,2.9725 -5.99997,4c-1.9465,0.4595 -2.0535,3.54047 -4,3.99997c-4.35251,1.0275 -6.58578,2.58578 -8,4c-2.82843,2.82843 -3.23465,4.15225 -4,6c-1.08237,2.6131 -5.64883,2.19577 -7.99997,6c-1.05145,1.70129 -2.37201,3.38507 -6,5.99997c-2.29453,1.65381 -4.15225,3.23462 -6,4c-2.6131,1.0824 -4.58575,2.58578 -5.99997,4c-1.41422,1.41422 -2,2 -4,4c-2,2 -4,2 -6,3.99997c-2,2 -6.58575,2.58578 -7.99997,4c-1.41422,1.41422 -1.38687,2.9176 -4,4c-1.84775,0.76538 -3.23462,0.15225 -4,2c-1.0824,2.61313 -4,2 -6,2c-2,0 -2,2 -5.99997,2c-4,0 -6.45673,-0.29608 -12,2c-5.22623,2.16476 -7.64746,4.97247 -11.99997,5.99997c-3.89301,0.91901 -8.10699,1.08099 -12,2c-4.35248,1.0275 -7.99997,4 -9.99997,4c-4,0 -6,2 -9.99997,2c-4,0 -6.10699,-0.91901 -10,0c-4.35251,1.0275 -6,2 -9.99997,2c-4,0 -10,2 -16,2c-2,0 -5.99997,2 -9.99997,2c-4,0 -6,0 -10,0c-2,0 -3.99997,0 -5.99997,0c-4,0 -8,0 -10,0c-3.99998,0 -8.05348,-1.5405 -9.99998,-2c-4.35249,-1.0275 -5.38686,-2.9176 -7.99998,-4c-5.54326,-2.29608 -8.30447,-2.46927 -11.99998,-4c-2.61311,-1.0824 -6.37199,-3.3851 -9.99998,-6c-2.29451,-1.65378 -4.37201,-3.38507 -7.99998,-5.99997c-4.58907,-3.30762 -6.15222,-5.23462 -7.99998,-6c-2.61313,-1.0824 -4.30447,-2.46927 -7.99998,-4c-2.61313,-1.0824 -3.38689,-4.9176 -6,-5.99997c-1.84775,-0.76535 -2.58577,-2.58578 -3.99998,-4c-1.41422,-1.41422 -2,-2 -4,-2c-2,0 -0.58578,-2.58578 -2,-4c-1.4142,-1.41422 -0.58577,-2.58578 -1.99998,-4c-1.41422,-1.41422 -2,-2 -2,-3.99997c0,-2 0,-4 0,-6c0,-2 0,-4 0,-6c0,-2 -0.58578,-2.58578 -2,-4c-1.41422,-1.41422 0,-3.99997 -2,-3.99997l0,-2l0,-2" id="svg_36" stroke="#000" fill="#ffff56"/>
  <path d="m27.14321,448.24134c-0.76923,0 -1.76376,0.54395 -2.30769,0c-1.08784,-1.08786 -0.2596,-2.54614 -1.53845,-4.61539c-1.14384,-1.85077 -2.01331,-3.90469 -2.30769,-4.61539c-0.41631,-1.00504 -0.76924,-1.53845 -0.76924,-2.30768c0,-0.76923 0,-1.53845 0,-2.30771c0,-0.76923 0.22531,-0.99451 0.76924,-1.53845c0.54393,-0.54391 0.05855,-1.24408 0.76923,-1.53845c1.00504,-0.41629 0.76923,-1.53845 1.53847,-1.53845c0.76923,0 0.82777,-0.47488 1.53845,-0.76926c1.00505,-0.41629 1.55905,-1.36172 2.30769,-1.53845c1.67404,-0.39517 2.53299,-0.22531 3.07692,-0.76923c0.54393,-0.54391 0.76924,-0.76923 1.53847,-0.76923c0.76923,0 0.99454,-0.22531 1.53847,-0.76923c0.54393,-0.54391 0.99451,-0.22531 1.53845,-0.76926c0.54393,-0.54395 0.76924,-0.76923 1.53847,-0.76923c0.76923,0 1.30264,-0.35294 2.30769,-0.76923c0.71068,-0.29437 1.53845,0 2.30769,0c0.76923,0 1.53845,0 2.30769,0c0.76923,0 1.53845,0 2.30769,0c0.76923,0 0.76923,0.76923 2.30768,0.76923c0.76924,0 0.2253,0.99454 0.76924,1.53848c0.54393,0.54391 0.76923,0.76923 1.53845,0.76923c0.76924,0 0.76924,0.76923 0.76924,1.53845c0,0.76923 0.76923,0.76923 0.76923,1.53845c0,0.76926 0,1.53848 0,2.30771c0,0.76923 0,1.53845 0,2.30768c0,0.76923 0,1.53848 0,2.30771c0,0.76923 -0.76923,0.76923 -0.76923,1.53845c0,0.76923 -0.99454,0.22531 -1.53847,0.76923c-0.54393,0.54391 -0.22528,0.99454 -0.76923,1.53848c-0.54393,0.54395 -1.65558,-0.58875 -3.07692,0c-1.00505,0.41629 -1.30266,1.12216 -2.30769,1.53845c-0.71069,0.29437 -1.40289,0.37405 -3.07693,0.76923c-0.74864,0.17673 -1.597,-0.29437 -2.30769,0c-1.00504,0.41629 -1.53845,0.76923 -2.30768,0.76923c-0.76924,0 -0.99454,0.22531 -1.53847,0.76923c-0.54393,0.54391 -0.99454,0.22531 -1.53847,0.76923c-0.54393,0.54391 -1.53845,0 -2.30769,0c-0.76923,0 -0.76923,0.76926 -1.53845,0.76926c-0.76924,0 -0.76924,0.76923 -1.53847,0.76923c-0.76923,0 -0.76923,0.76923 -1.53845,0.76923l0,0.76923" id="svg_37" stroke="#000" fill="#7f3f00"/>
  <path d="m347.91244,317.36221c0,-0.76923 -0.29437,-1.59702 0,-2.30769c0.41632,-1.00505 0.47488,-2.36623 0.76926,-3.07692c0.41629,-1.00504 1.12216,-2.07188 1.53845,-3.07692c0.29437,-0.71068 1.12216,-0.53342 1.53845,-1.53847c0.58875,-1.42134 0.47485,-1.597 0.76923,-2.30769c0.41629,-1.00504 1.12216,-1.30263 1.53848,-2.30768c0.29437,-0.71068 0.47485,-0.82779 0.76923,-1.53847c0.41629,-1.00504 0.47485,-1.59702 0.76923,-2.30769c0.41629,-1.00504 0.47485,-1.59702 0.76923,-2.30769c0.41629,-1.00504 1.89139,-1.30264 2.30771,-2.30769c0.58875,-1.42134 -0.31863,-2.7583 0.76923,-3.84615c0.54391,-0.54392 0.47485,-0.82778 0.76923,-1.53846c0.41629,-1.00505 0.47485,-1.59702 0.76923,-2.30769c0.41629,-1.00504 0.76923,-1.53846 0.76923,-2.30769c0,-0.76923 0.76923,-1.53846 0.76923,-2.30769c0,-0.76923 0.22531,-0.99454 0.76923,-1.53846c0.54391,-0.54392 -0.23648,-1.68153 0.76926,-3.07692c0.63608,-0.88251 1.12216,-1.30264 1.53845,-2.30769c0.29437,-0.71068 0.35294,-1.30264 0.76923,-2.30769c0.29437,-0.71068 0,-1.53846 0.76923,-2.30769c0.76923,-0.76923 0.47485,-1.59702 0.76923,-2.30769c0.41632,-1.00506 1.14331,-1.40289 1.53848,-3.07692c0.17673,-0.74866 0.35294,-1.30264 0.76923,-2.30769c0.29437,-0.71068 0.76923,-1.53846 0.76923,-2.30769c0,-0.76923 -0.54395,-1.76376 0,-2.30769c0.54391,-0.54392 0.76923,-0.76923 0.76923,-1.53846c0,-0.76923 0.76923,-0.76923 0.76923,-1.53846c0,-0.76923 0.22531,-0.99454 0.76923,-1.53846c0.54395,-0.54395 0.22531,-0.99454 0.76926,-1.53847c0.54391,-0.54392 0.47485,-0.82778 0.76923,-1.53846c0.41629,-1.00504 0.99454,-0.99454 1.53845,-1.53846c0.54395,-0.54393 0.22531,-0.99454 0.76923,-1.53846c0.54391,-0.54392 1.12216,-0.5334 1.53848,-1.53847c0.29437,-0.71067 0.7692,-0.76923 0.7692,-1.53846c0,-0.76923 0.22528,-0.99453 0.76923,-1.53846c0.54395,-0.54397 1.53851,0 2.30774,0c0.76923,0 2.17212,0.37405 3.84613,0.76923c1.49731,0.35347 2.07184,0.35292 3.0769,0.76923c0.71069,0.29437 1.53851,0 2.30774,0c0.76923,0 1.55902,0.5925 2.30768,0.76923c1.67401,0.39519 1.76373,0.99453 2.30768,1.53846c0.54395,0.54392 0.99451,0.2253 1.53845,0.76923c0.54395,0.54392 1.53845,0.00002 2.30768,0.76923c0.76929,0.76925 1.76379,0.99454 2.30774,1.53847c0.54395,0.54392 0.22528,0.99453 0.76923,1.53846c0.54395,0.54392 0.53339,1.12215 1.53845,1.53846c0.71069,0.29437 0.82776,0.47486 1.53845,0.76923c1.00507,0.41631 0.76923,1.53846 0.76923,2.30769c0,0.76923 0,1.53847 -0.76923,1.53847c-0.76923,0 -0.76923,0.76923 -1.53845,0.76923c-0.76923,0 -0.99451,0.2253 -1.53845,0.76923c-0.54395,0.54392 -1.30261,0.35293 -2.30768,0.76923c-0.71075,0.2944 -1.76379,-0.54392 -2.30774,0c-0.54395,0.54392 -0.22528,0.99453 -0.76923,1.53846c-0.54395,0.54392 -0.99451,0.2253 -1.53845,0.76923c-0.54395,0.54392 -0.99451,0.22531 -1.53845,0.76923c-0.54395,0.54393 -0.76923,0.76923 -0.76923,1.53846c0,0.76923 -0.22528,0.99454 -0.76923,1.53846c-0.54395,0.54392 -0.22528,0.99454 -0.76923,1.53847c-0.54395,0.54392 -0.76923,0.76923 -0.76923,1.53846c0,0.76923 -0.76923,0.76923 -0.76923,1.53846c0,0.76923 0,1.53846 0,2.30769c0,0.76923 0.54395,1.76376 0,2.30769c-0.54395,0.54397 -0.99457,0.22531 -1.53851,0.76923c-0.54395,0.54392 -0.47485,0.82778 -0.76923,1.53846c-0.41632,1.00504 -1.76373,1.76376 -2.30768,2.30769c-0.54395,0.54392 -0.76923,0.76923 -1.53845,1.53846c-0.76923,0.76923 -1.24408,0.82778 -1.53845,1.53846c-0.41632,1.00505 -1.30261,2.66062 -2.30768,3.07693c-0.71075,0.2944 -1.24414,0.82777 -1.53851,1.53846c-0.41629,1.00503 -1.24408,1.59702 -1.53845,2.30769c-0.83261,2.01009 -1.59702,2.01331 -2.30768,2.30769c-1.00504,0.41631 -0.82779,2.01334 -1.53845,2.30769c-1.00507,0.41631 -1.12219,1.30266 -1.53848,2.30769c-0.29437,0.71068 -0.22531,1.76376 -0.76923,2.30769c-0.54391,0.54393 -1.12216,1.30266 -1.53845,2.30769c-0.29437,0.71068 -0.76923,1.53847 -0.76923,2.30769c0,0.76923 -0.76923,1.53845 -0.76923,2.30769c0,0.76923 0,1.53845 0,2.30769c0,0.76923 0.54391,2.53299 0,3.07692c-0.54395,0.54395 -0.47488,0.82777 -0.76926,1.53847c-0.41629,1.00504 -0.76923,2.30768 -0.76923,3.84615c0,1.53847 -0.76923,3.07692 -0.76923,3.84616c0,0.76923 0,1.53845 0,2.30769c0,0.76923 -0.29437,1.597 0,2.30769c0.41629,1.00504 0.99454,1.76375 1.53845,2.30768c0.54395,0.54395 0.22534,0.99454 0.76926,1.53847c0.54391,0.54393 0.99454,0.2253 1.53845,0.76923c0.54395,0.54393 0.22531,0.99454 0.76923,1.53847c0.54391,0.54393 0.53342,1.12216 1.53845,1.53847c0.71066,0.29437 0.99454,0.22528 1.53848,0.76923c0.54391,0.54393 0.76923,0.76923 0.76923,1.53847l0.76923,0l0,0.76923l0,0.76923" id="svg_38" stroke="#000" fill="#ffff00"/>
  <path d="m372.52782,253.51606c0.76923,0.76923 1.30197,0.91231 2.30771,2.30769c1.27216,1.76503 2.96362,3.21007 3.84616,3.84616c1.39536,1.00571 1.6138,1.4034 3.07693,2.30769c1.96301,1.21322 3.71057,1.14328 5.38458,1.53847c2.24597,0.5302 3.0769,0 3.84619,0c0.76923,0 1.53845,0 1.53845,-0.76923c0,-0.76923 0.22528,-0.99454 0.76923,-1.53846c0.54395,-0.54392 1.53845,0 2.30768,0c0.76923,0 0.99451,-0.2253 1.53845,-0.76923c0.54395,-0.54392 0.53339,-1.12215 1.53845,-1.53846c0.71069,-0.29437 0.76923,-0.76923 1.53845,-0.76923c0.76929,0 1.53851,0 2.30774,0c0.76923,0 0.76923,-0.76923 1.53845,-0.76923c0.76923,0 1.76373,0.54392 2.30768,0c0.54395,-0.54393 0.76923,-0.76923 0.76923,-1.53847c0,-0.76923 0,-1.53846 0,-2.30769c0,-0.76923 0.3186,-1.21984 -0.76923,-2.30769c-1.08783,-1.08785 -1.59698,-0.47486 -2.30768,-0.76923c-1.00507,-0.41631 -1.30261,-1.12215 -2.30768,-1.53846c-0.71069,-0.29437 -1.59705,-0.47486 -2.30774,-0.76923c-1.00507,-0.41631 -1.30261,-1.12215 -2.30768,-1.53846c-0.71069,-0.29437 -1.53845,0 -2.30768,-0.76923c-0.76923,-0.76923 -0.99451,-0.99453 -1.53845,-1.53846c-0.54395,-0.54392 -0.99451,-0.2253 -1.53845,-0.76923c-0.54395,-0.54392 -1.53851,0 -1.53851,-0.76923c0,-0.76923 -0.76923,-0.76923 -1.53845,-0.76923c-0.76923,0 -0.99451,-0.2253 -1.53845,-0.76923c-0.54395,-0.54392 -1.53845,0 -2.30768,0c-1.53845,0 -2.30768,0 -3.0769,0c-0.76923,0 -1.89142,-0.23582 -2.30774,0.76923c-0.29437,0.71068 -0.22528,1.76377 -0.7692,2.30769c-0.54395,0.54395 -0.99454,1.76376 -1.53848,2.30769c-0.54391,0.54392 -0.76923,0.76923 -0.76923,1.53846c0,0.76923 -0.76923,0.76923 -0.76923,1.53847c0,0.76923 -0.76923,0.76923 -0.76923,1.53846c0,0.76923 0,1.53846 0,2.30769l0,0.76923l0,0.76923l0,0.76923" id="svg_39" stroke="#000" fill="#7f3f00"/>
  <path d="m52.82923,435.42613c0.90906,0 1.17531,0.26627 1.8181,0.90906c0.64278,0.64279 0.90904,0.90903 0.90904,1.81808c0,0.90906 0.26628,1.17529 0.90906,1.81808c0.64279,0.64279 1.17529,0.26627 1.81808,0.90906c0.64278,0.64279 0.26624,1.17529 0.90904,1.81808c1.28558,1.28558 2.56693,1.35107 4.54524,1.81808c0.88472,0.20886 2.59326,0.15735 3.63618,0.90906c1.649,1.18854 2.72714,0.90906 3.63618,0.90906c1.8181,0 3.63618,0 5.45428,0c0.90904,0 3.47597,0.44202 5.45427,0.90903c2.65419,0.62656 4.54524,0 6.36333,0c1.8181,0 4.61819,-0.62659 7.27238,0c1.9783,0.46701 4.54523,0.90906 7.27237,0.90906c1.81808,0 4.54523,0 6.36333,0c1.81808,0 3.65967,-0.29123 5.45428,0c2.83752,0.46048 4.54523,0.90906 6.36333,0.90906c1.81808,0 4.54523,0 6.36333,0c2.72713,0 5.45427,0 8.18141,0c2.72714,0 5.45428,0 9.09045,0c2.72714,0 6.36334,0 10.90857,0c3.6362,0 8.18143,0.90903 12.72665,0.90903c5.45428,0 9.99951,0 13.63571,0c4.54523,0 8.1814,0 12.72665,0c4.54523,0 9.02301,-1.36133 13.63568,-1.81808c3.6185,-0.35831 8.19913,-0.55075 11.81763,-0.90906c4.61267,-0.45673 8.1814,-1.81808 11.8176,-2.72714c3.63617,-0.90903 7.30026,-2.64743 9.99951,-3.63617c4.59668,-1.68378 9.01804,-3.78888 12.72665,-5.45428c4.46576,-2.0054 9.27045,-3.30255 14.54474,-6.36334c5.66968,-3.29022 9.99951,-6.36331 13.63571,-9.09045c3.63617,-2.72714 7.27237,-5.45427 10.90857,-8.18141c3.63617,-2.72713 6.1124,-6.5658 9.09045,-9.99953c3.36926,-3.8848 6.46524,-7.1981 9.09045,-10.90855c1.89307,-2.67566 4.54526,-7.27237 6.36334,-10.90855c1.81808,-3.63618 4.54523,-8.18143 6.36331,-11.81761c1.81812,-3.63618 4.91696,-7.06908 7.27237,-11.81761c2.17532,-4.3855 4.31473,-8.32794 7.2724,-12.72665c2.53616,-3.77185 4.54523,-7.27237 6.36331,-10.90855c1.81808,-3.63618 3.10791,-4.92601 4.54523,-6.36333c1.43732,-1.43732 1.17529,-2.08437 1.81808,-2.72714c0.64279,-0.64279 1.65851,-1.90709 2.72714,-3.63618c0.47791,-0.77328 0.90906,-1.81808 1.81812,-2.72714l0,-0.90904l0.90903,-0.90904l0.90906,0" id="svg_40" stroke="#000" fill="none"/>
  <path d="m27.24549,447.76326c0,0.90903 1.37538,2.35806 2.72713,4.54523c1.51131,2.44534 2.46727,6.55573 4.54524,9.09045c2.44514,2.9826 3.63618,4.54523 4.54523,5.45428c0.90904,0.90906 2.08435,2.08435 2.72714,2.72714c1.28558,1.28558 1.8181,3.6362 2.72714,4.54523c1.8181,1.81808 2.44846,3.14423 3.63618,3.6362c0.83984,0.34787 1.8181,0.90903 2.72714,1.81808c0.90904,0.90906 1.81807,1.81808 3.63618,3.6362c1.8181,1.81808 2.89622,2.44766 4.54523,3.63617c1.04294,0.75171 1.8873,1.47021 2.72714,1.81808c1.18774,0.49197 1.65788,1.3511 3.63618,1.81812c1.76945,0.41772 4.45691,1.11285 6.36333,1.81808c3.51527,1.30042 6.38376,0.57587 9.09047,0.90906c3.72,0.45795 5.45428,0.90903 10.90855,0.90903c4.54524,0 9.09047,0 12.72665,0c3.6362,0 6.36333,0 9.99953,0c1.8181,0 4.54521,0 5.45427,0c1.81808,0 4.54523,0 7.27237,0c3.6362,0 7.27237,0 10.90857,0c3.63617,0 5.45428,0 8.18143,0c3.63617,0 7.27237,0 10.90854,0c2.72714,0 6.36334,0 9.99951,0c3.6362,0 7.29532,-0.80115 11.81763,-1.81808c3.65677,-0.8223 8.25131,-1.57397 11.8176,-2.72714c4.6579,-1.50616 7.91113,-4.1283 10.90857,-5.45428c3.42767,-1.5163 7.38785,-1.52594 9.99951,-2.72714c4.81567,-2.2149 6.14612,-3.10522 9.09045,-4.54523c2.58234,-1.26297 5.45428,-1.81812 7.27237,-2.72714c1.81812,-0.90906 4.55701,-1.67249 5.45428,-1.81808c2.83755,-0.46048 3.52582,-1.35764 6.36334,-1.81808c1.79462,-0.29123 3.47595,-1.3511 5.45428,-1.81812c1.76944,-0.41772 3.57629,-1.04019 5.45425,-1.81808c2.65582,-1.1001 4.61655,-1.62708 7.27237,-2.72714c1.87796,-0.77786 4.56958,-2.51831 5.45428,-2.72714c1.97833,-0.46701 2.44846,-1.32611 3.6362,-1.81808c0.83987,-0.34787 1.17529,-0.26627 1.81808,-0.90906c0.64279,-0.64279 1.86673,-0.4913 3.6362,-0.90903c1.9783,-0.46701 3.63617,-1.81808 5.45428,-2.72714c3.6362,-1.81808 6.55576,-2.46725 9.09045,-4.54523c1.9884,-1.6301 4.42093,-4.67871 6.36331,-6.36334c3.43372,-2.97806 6.69766,-5.96689 9.99954,-9.09045c2.38101,-2.25244 5.76898,-4.2775 7.27237,-6.36334c1.18854,-1.64899 3.1442,-2.44846 3.63617,-3.63617c0.34787,-0.83987 1.07816,-1.53864 2.72714,-2.72714c1.04294,-0.75171 2.44846,-3.14423 3.6362,-3.6362c0.83984,-0.34787 2.19885,-1.28983 3.63617,-2.72714c1.43735,-1.43735 3.28513,-1.17903 5.45428,-3.63618c1.34525,-1.52386 3.93042,-4.10904 5.45428,-5.45427c2.45715,-2.16913 3.35669,-5.62337 4.54523,-7.27238c1.50339,-2.08583 3.63617,-4.54523 4.54523,-6.36333c0.90906,-1.8181 2.65225,-3.07883 3.6362,-5.45427c1.04364,-2.51955 1.5386,-3.80527 2.72714,-5.45428c0.75168,-1.04291 2.26013,-1.65788 2.72714,-3.63618c0.20886,-0.88472 1.5386,-1.98718 2.72714,-3.63618c1.50339,-2.08585 3.35669,-3.80527 4.54523,-5.45428c1.50339,-2.08583 2.44766,-2.89622 3.63617,-4.54523c0.75171,-1.04294 2.23517,-1.53943 2.72714,-2.72714c0.34787,-0.83984 0.90906,-1.8181 0.90906,-2.72714c0,-0.90904 1.32611,-1.53943 1.81808,-2.72714c0.34787,-0.83984 0.90906,-1.81808 0.90906,-3.63618l0.90906,-0.90904l0,-0.90906" id="svg_41" stroke="#000" fill="none"/>
 </g>
</svg>